<?xml version="1.0" encoding="utf-8"?>
<!-- Generator: Adobe Illustrator 24.3.0, SVG Export Plug-In . SVG Version: 6.00 Build 0)  -->
<svg version="1.1" id="Camada_1" xmlns="http://www.w3.org/2000/svg" xmlns:xlink="http://www.w3.org/1999/xlink" x="0px" y="0px"
	 viewBox="0 0 1350 700" style="enable-background:new 0 0 1350 700;" xml:space="preserve">
<style type="text/css">
	.st0{fill:#365083;}
	.st1{fill:#FFFFFF;}
	.st2{fill:#231F20;}
	.st3{fill:#C4FC6B;}
	.st4{fill:#010A3A;}
</style>
<rect y="1" class="st0" width="1350" height="700"/>
<g>
	<path class="st1" d="M85.77,472.62c0,0,33.34-85.83,38.81-105.13c5.47-19.3,5.95-66.2,5.93-67.03c0.23-8.02,1-16.02,2.3-23.94
		c1.69-6.78,3.83-13.44,6.39-19.95c4.96-13.34,12.99-25.33,23.44-35c17.26-15.17,40.58-20.87,62.48-27.85
		c35.69-11.35,67.84-28.06,101.52-44.01c8.76-4.14,18.02-8.25,27.58-7.7c5.22,0.3,10.82,2.3,13.31,6.89
		c2.48,4.6,1.15,10.29-1.38,14.82c-4.37,7.79-11.83,13.26-18.38,19.33c-5.84,5.42-17.79,18.73-11.35,27.41
		c5.15,6.89,18.38-3.13,25.55,3.68c3.75,3.58,3.49,9.9,0.99,14.43c-2.5,4.53-6.76,7.81-10.69,11.21
		c-10.41,9.01-19.3,20.34-27.58,31.21c-8.27,10.87-5.06,2.3-4.39,15.05c0.8,15.63,2.99,34.26-1.42,49.57
		c-7.08,24.43-48.56,54.65-66.64,70.07c-18.09,15.42-33.11,66.87-33.11,66.87L85.77,472.62z"/>
	<path class="st2" d="M219.42,473.77H85.77c-0.39,0-0.75-0.19-0.97-0.51c-0.21-0.31-0.25-0.71-0.11-1.06
		c0.32-0.85,33.41-85.99,38.79-105.02c5.38-19.03,5.88-66.25,5.88-66.64c0.27-8.13,1.08-16.23,2.44-24.24
		c1.7-6.83,3.85-13.54,6.43-20.08c5.01-13.52,13.15-25.67,23.74-35.46c15.19-13.33,35.04-19.46,54.26-25.28l8.64-2.69
		c29.37-9.35,55.82-22.08,83.81-35.55c5.81-2.8,11.67-5.63,17.56-8.41c9.38-4.44,18.57-8.34,28.24-7.81
		c6.57,0.37,11.88,3.19,14.25,7.54c3.33,6.2,0.14,13.21-1.4,15.92c-3.49,6.27-8.96,11.08-14.22,15.72
		c-1.47,1.29-2.94,2.57-4.37,3.91c-3.01,2.78-17.69,17.14-11.21,25.88c2.14,2.87,6.16,2.3,10.82,1.45s10.59-1.72,14.59,2.09
		c4,3.81,3.86,11.05,1.22,15.81c-2.5,3.95-5.69,7.41-9.42,10.23l-1.52,1.31c-10.32,8.92-19.19,20.22-27.41,31.02
		c-1.46,1.97-3.04,3.86-4.71,5.65c-0.25,0.25-0.49,0.52-0.71,0.8c0,0,0.11,0.18,0.16,0.39c0.7,2.42,1.08,4.92,1.13,7.45
		c0.11,2.41,0.28,4.92,0.44,7.45c0.87,13.79,1.88,29.39-1.91,42.51c-6.02,20.68-36.35,45.55-56.42,61.93
		c-3.88,3.17-7.54,6.16-10.5,8.69c-17.53,15.05-32.59,65.81-32.75,66.32C220.34,473.51,219.9,473.79,219.42,473.77z M87.45,471.47
		H218.6c2.09-6.89,16.2-52,33.21-66.64c2.96-2.53,6.64-5.54,10.55-8.71c19.85-16.22,49.84-40.74,55.66-60.8
		c3.68-12.73,2.69-28.13,1.82-41.73c-0.16-2.55-0.32-5.03-0.44-7.45c-0.03-2.33-0.38-4.65-1.03-6.89c-0.48-1.65-0.16-2.07,1.08-3.4
		c1.63-1.74,3.16-3.56,4.6-5.47c8.27-10.92,17.26-22.31,27.74-31.39l1.52-1.31c3.52-2.63,6.53-5.88,8.89-9.58
		c2.3-4,2.67-9.77-0.78-13.05c-3.45-3.29-8-2.3-12.64-1.47c-4.64,0.83-10.07,1.65-13.03-2.3c-7.45-10.04,6.89-24.7,11.49-28.95
		c1.45-1.33,2.92-2.62,4.41-3.93c5.12-4.6,10.43-9.19,13.79-15.1c2.8-5.01,3.31-10.13,1.38-13.79s-6.6-6.02-12.34-6.34
		c-9.19-0.53-18.06,3.29-27.14,7.58l-17.56,8.41c-28.06,13.51-54.58,26.27-84.11,35.66c-2.87,0.92-5.77,1.82-8.66,2.69
		c-19.07,5.88-38.67,11.93-53.54,24.96c-10.31,9.51-18.23,21.32-23.12,34.47c-2.55,6.45-4.66,13.06-6.34,19.79
		c-1.28,7.82-2.05,15.71-2.3,23.62c0,0.44-0.41,47.77-5.97,67.38C120.68,385.5,92,459.7,87.45,471.47z"/>
	<polygon class="st3" points="184.58,74.65 344.6,74.65 337.33,188.86 337.33,311.99 191.85,311.99 191.85,187.16 	"/>
	<path class="st1" d="M268.85,255.46c-29.69,0-53.75-24.06-53.75-53.75c0-29.69,24.06-53.75,53.75-53.75
		c29.69,0,53.75,24.06,53.75,53.75c0,0.01,0,0.02,0,0.02C322.56,231.4,298.52,255.43,268.85,255.46z M268.85,150.28
		c-28.42,0-51.45,23.04-51.45,51.45s23.04,51.45,51.45,51.45c28.42,0,51.45-23.04,51.45-51.45
		C320.28,173.33,297.26,150.31,268.85,150.28z"/>
	<path class="st1" d="M327.93,212c-1.96,9.12,3.84,18.1,12.96,20.07c1.96,0.42,3.99,0.49,5.98,0.2c3.1-0.47,6.03-1.71,8.53-3.61
		c4.67-3.38,7.61-8.64,8.07-14.39c0.53-9.19-7.28-17.35-16.41-18.38C338.55,194.75,329.61,204.33,327.93,212z"/>
	<path class="st2" d="M344.52,233.58c-9.95,0.06-18.07-7.96-18.13-17.91c-0.01-1.32,0.13-2.64,0.41-3.92l0,0
		c1.88-8.64,11.38-18.22,20.38-17.1c10.02,1.09,17.56,9.62,17.42,19.69c-0.48,6.08-3.6,11.65-8.53,15.24
		c-2.66,2.01-5.77,3.32-9.05,3.84C346.2,233.53,345.36,233.59,344.52,233.58z M329.06,212.23c-1.83,8.51,3.59,16.89,12.11,18.72
		c1.82,0.39,3.7,0.46,5.54,0.19c2.9-0.46,5.65-1.63,8-3.4c4.39-3.18,7.17-8.13,7.61-13.54c0.48-8.27-6.57-16.09-15.4-17.26
		C339.29,196.01,330.71,204.58,329.06,212.23L329.06,212.23z"/>
	<path class="st1" d="M324.69,258.63c-2.24,3.19-2.9,7.23-1.79,10.96c0.9,2.16,2.28,4.07,4.04,5.61c4.6,4.39,10.98,7.49,17.28,6.55
		c3.87-0.8,7.5-2.46,10.64-4.85c5.58-3.84,10.94-8.73,12.8-15.24c2.69-9.42-4.16-23.19-15.21-21.81
		C343.4,241.1,329.52,251.14,324.69,258.63z"/>
	<path class="st2" d="M341.93,283.06c-5.96-0.26-11.61-2.77-15.79-7.03c-1.89-1.65-3.37-3.72-4.32-6.04
		c-1.25-4.07-0.54-8.49,1.91-11.97l0,0c4.96-7.7,19.14-18.11,28.59-19.3c4.65-0.54,9.25,1.37,12.16,5.03
		c4.22,5.07,5.82,11.83,4.3,18.25c-1.63,5.72-5.84,10.75-13.26,15.86c-3.27,2.49-7.07,4.21-11.1,5.03
		C343.59,283,342.76,283.06,341.93,283.06z M325.64,259.27c-2.05,2.88-2.66,6.54-1.65,9.93c0.84,1.99,2.12,3.76,3.75,5.17
		c4.22,4.45,10.23,6.75,16.34,6.23c3.69-0.76,7.16-2.33,10.16-4.6c6.89-4.78,10.87-9.42,12.34-14.59
		c1.34-5.67-0.08-11.63-3.84-16.09c-2.4-3.08-6.23-4.68-10.11-4.23c-8.73,1.08-22.36,11.12-26.98,18.27V259.27z"/>
	<path class="st1" d="M330.3,288.92c-2.16,1.47-3.95,3.4-5.26,5.65c-2.65,5.34-1.97,11.73,1.72,16.41
		c3.74,4.55,9.16,7.39,15.03,7.88c6.92,0.85,13.88-1.3,19.12-5.91c5.2-4.73,7.51-11.85,6.09-18.73
		C362.77,276.51,341.33,280.87,330.3,288.92z"/>
	<path class="st2" d="M344.59,320.17c-0.98,0-1.95-0.05-2.92-0.16c-6.19-0.53-11.9-3.54-15.83-8.34c-4-5.02-4.71-11.92-1.82-17.65
		c1.4-2.4,3.32-4.47,5.61-6.04c7.47-5.45,19.65-9.19,28.43-6c5.22,1.96,9.04,6.51,10.07,12c1.54,7.28-0.91,14.84-6.43,19.83
		C356.97,317.97,350.88,320.23,344.59,320.17z M350.75,283.06c-7.13,0.28-14.02,2.68-19.79,6.89l0,0c-2.01,1.39-3.69,3.19-4.94,5.29
		c-2.4,4.94-1.76,10.82,1.63,15.14c3.55,4.32,8.7,7.01,14.27,7.47c6.6,0.79,13.22-1.26,18.22-5.63c4.86-4.46,7.04-11.14,5.72-17.6
		c-0.82-4.74-4.09-8.68-8.59-10.36C355.19,283.46,352.98,283.06,350.75,283.06L350.75,283.06z M330.3,288.92L330.3,288.92z"/>
	<path class="st1" d="M130.58,297.67c0,0-4.27-55.63,21.35-64.34c17.07-5.74,94.49,8.92,86.31,23.81
		c-8.18,14.89-57.29,6.39-57.29,6.39s11.88,53.4-11.88,78.68"/>
	<path class="st2" d="M169.07,343.42c-0.29,0.01-0.57-0.1-0.78-0.3c-0.45-0.45-0.45-1.17-0.01-1.62c0,0,0,0,0.01-0.01
		c22.98-24.66,11.72-77.07,11.49-77.6c-0.09-0.37,0.02-0.77,0.3-1.03c0.26-0.28,0.64-0.41,1.01-0.34c0.51,0,48.4,8.18,56.09-5.81
		c0.81-1.54,0.47-3.44-0.83-4.6c-9.72-11.63-69.38-22.47-84.11-17.53c-24.5,8.23-20.68,62.5-20.68,63.06
		c0.05,0.63-0.42,1.19-1.05,1.24c0,0,0,0-0.01,0c-0.62,0.02-1.16-0.44-1.24-1.06c-0.18-2.3-4.04-56.62,22.13-65.42
		c14.22-4.78,75.56,5.06,86.61,18.25c1.93,1.89,2.38,4.84,1.08,7.22c-7.72,14.02-47.98,8.62-56.83,7.24
		c1.84,9.4,9.19,54.71-12.52,78.13C169.55,343.36,169.31,343.43,169.07,343.42z"/>
	<path class="st1" d="M274.25,164.37c0,2.53,0,5.06,0,7.58c0,0.48,0.14,0.67,0.62,0.76c3.72,0.71,7.21,2.33,10.16,4.71
		c3.06,2.54,5.09,6.11,5.72,10.04c0.18,1.06,0.28,2.16,0.41,3.29h-11.74c-0.03-1.75-0.65-3.45-1.77-4.8
		c-0.98-0.98-2.04-1.9-3.15-2.73l-0.21,0.16v14.62l1.26,0.3c3.17,0.61,6.26,1.6,9.19,2.94c4.51,1.95,7.58,6.23,8,11.12
		c1.25,8.41-3.7,16.51-11.77,19.21c-2.16,0.76-4.44,1.24-6.76,1.88v5.7h-10.8v-5.86c-2.16-0.6-4.25-1.06-6.27-1.75
		c-3.93-1.24-7.33-3.79-9.63-7.22c-1.9-2.99-2.87-6.48-2.78-10.02h11.49c0.18,4.11,3.06,7.6,7.05,8.55v-15.67
		c-2.18-0.64-4.39-1.24-6.55-1.91c-2.64-0.73-5.07-2.08-7.08-3.95c-1.97-1.97-3.27-4.51-3.72-7.26c-0.7-3.36-0.44-6.84,0.74-10.07
		c1.7-4.7,5.42-8.4,10.13-10.07c1.91-0.62,3.86-1.12,5.84-1.49l0.69-0.16v-7.91H274.25z M274.25,222.96
		c1.79-0.22,3.47-0.96,4.85-2.11c2.38-2.09,2.81-5.63,0.99-8.23c-1.62-1.56-3.64-2.63-5.84-3.1V222.96z M263.43,182.27
		c-1.43,0.6-2.81,1.3-4.14,2.11c-2.58,1.84-3.19,5.43-1.34,8.01c0.2,0.27,0.41,0.53,0.65,0.77c1.43,1.09,3.08,1.87,4.83,2.3V182.27z
		"/>
	<polygon class="st4" points="75.06,476.52 103.12,408.32 238.84,436.79 231.21,478.27 	"/>
	<path class="st1" d="M847.78,472.62c0,0-33.34-85.83-38.81-105.13c-2.46-9.94-3.93-20.1-4.39-30.33
		c-0.92-11.81-4.41-22.8-7.93-34.12c-7.46-24.06-16.48-47.61-26.98-70.5c-5.31-11.49-10.98-20.43-22.86-25.65
		c-12.43-5.47-25.6-9.03-38.51-13.14c-35.69-11.35-67.84-28.06-101.52-44.01c-8.76-4.14-18.02-8.25-27.58-7.7
		c-5.22,0.3-10.82,2.3-13.31,6.89c-2.48,4.6-1.15,10.29,1.38,14.82c4.37,7.79,11.83,13.26,18.38,19.33
		c5.84,5.42,17.79,18.73,11.35,27.41c-5.15,6.89-18.38-3.13-25.55,3.68c-3.75,3.58-3.49,9.9-0.99,14.43
		c2.5,4.53,6.76,7.81,10.69,11.21c10.41,9.01,19.3,20.34,27.58,31.21c8.27,10.87,5.06,2.3,4.39,15.05
		c-0.8,15.63-2.99,34.26,1.42,49.57c7.08,24.43,48.56,54.65,66.64,70.07c18.09,15.42,33.11,66.87,33.11,66.87L847.78,472.62z"/>
	<path class="st2" d="M847.78,473.77H714.13c-0.51,0-0.96-0.34-1.1-0.83c-0.16-0.51-15.21-51.27-32.75-66.32
		c-2.96-2.53-6.62-5.52-10.5-8.69c-20.06-16.38-50.39-41.18-56.42-61.93c-3.79-13.12-2.78-28.75-1.91-42.51
		c0.16-2.53,0.32-5.03,0.44-7.45c0.04-2.52,0.42-5.02,1.13-7.45c0.04-0.18,0.08-0.35,0.14-0.53c-0.25-0.2-0.48-0.42-0.69-0.67
		c-1.64-1.8-3.17-3.68-4.6-5.65c-8.23-10.8-17.1-22.11-27.41-31.02l-1.52-1.31c-3.73-2.81-6.92-6.28-9.42-10.23
		c-2.64-4.76-3.06-11.72,1.22-15.81s9.63-2.9,14.59-2.09c4.96,0.8,8.69,1.42,10.82-1.45c6.48-8.73-8.2-23.09-11.21-25.88
		c-1.42-1.33-2.9-2.62-4.37-3.91c-5.26-4.6-10.73-9.44-14.22-15.72c-1.54-2.71-4.73-9.72-1.4-15.92c2.3-4.34,7.68-7.17,14.25-7.54
		c9.65-0.53,18.87,3.38,28.24,7.81c5.88,2.78,11.74,5.61,17.56,8.41c27.99,13.47,54.44,26.2,83.81,35.55l8.82,2.73
		c10.15,2.89,20.13,6.38,29.87,10.43c11.9,5.22,17.79,13.79,23.46,26.22c10.51,22.94,19.54,46.54,27.02,70.64l0.32,1.08
		c3.47,11.17,6.76,21.74,7.65,33.32v0.53c0.45,10.01,1.88,19.94,4.27,29.67c5.38,19.03,38.47,104.17,38.79,105.02
		c0.17,0.33,0.17,0.73,0,1.06C848.73,473.73,848.24,473.89,847.78,473.77z M714.98,471.47H846.1
		c-4.6-11.77-33.23-85.97-38.24-103.66c-2.44-9.87-3.9-19.95-4.34-30.1v-0.46c-0.87-11.31-4.11-21.74-7.54-32.82l-0.34-1.06
		c-7.45-24.01-16.44-47.51-26.91-70.36c-5.45-11.83-11.05-20.15-22.29-25.07c-9.65-4.02-19.52-7.47-29.57-10.34
		c-2.94-0.92-5.88-1.82-8.82-2.76c-29.53-9.4-56.05-22.15-84.11-35.66l-17.56-8.41c-9.19-4.3-17.99-8.11-27.14-7.58
		c-5.74,0.32-10.36,2.69-12.34,6.34s-1.42,8.71,1.38,13.79c3.31,5.91,8.62,10.57,13.79,15.1c1.49,1.31,2.96,2.6,4.41,3.93
		c4.6,4.25,18.94,18.91,11.49,28.95c-2.96,4-8.09,3.15-13.03,2.3c-4.94-0.85-9.47-1.54-12.64,1.47s-3.01,9.05-0.78,13.05
		c2.37,3.7,5.38,6.95,8.89,9.58l1.52,1.31c10.48,9.08,19.46,20.47,27.74,31.39c1.43,1.9,2.97,3.73,4.6,5.47
		c1.24,1.33,1.56,1.75,1.08,3.4c-0.65,2.24-1,4.56-1.03,6.89c0,2.3-0.28,4.89-0.44,7.45c-0.87,13.6-1.86,29,1.82,41.73
		c5.81,20.06,35.8,44.58,55.66,60.8c3.91,3.17,7.58,6.18,10.55,8.71c16.98,14.62,31,59.7,33.07,66.62H714.98z"/>
	<polygon class="st3" points="741.71,312.01 596.22,312.01 591.88,182.27 579.86,74.68 758.07,74.68 745.83,188.86 	"/>
	<path class="st1" d="M669,247.07c-29.69,0.01-53.76-24.04-53.77-53.73s24.04-53.76,53.73-53.77c29.69-0.01,53.76,24.04,53.77,53.73
		c0,0.02,0,0.03,0,0.05C722.69,223,698.66,247.03,669,247.07z M669,141.89c-28.42-0.01-51.46,23.01-51.47,51.43
		s23.01,51.46,51.43,51.47c28.42,0.01,51.46-23.01,51.47-51.43c0-0.01,0-0.02,0-0.02C720.4,164.95,697.4,141.93,669,141.89z"/>
	<path class="st1" d="M674.35,156.07c0,2.53,0,5.06,0,7.58c0,0.48,0.14,0.67,0.62,0.76c3.71,0.67,7.19,2.25,10.13,4.6
		c3.07,2.54,5.12,6.11,5.74,10.04c0.18,1.06,0.28,2.16,0.41,3.29h-11.74c-0.02-1.77-0.64-3.47-1.75-4.85
		c-1-0.97-2.05-1.89-3.15-2.73l-0.21,0.16v14.62l1.26,0.3c3.17,0.62,6.25,1.61,9.19,2.94c4.5,1.96,7.57,6.23,7.97,11.12
		c0.68,4.48-0.41,9.06-3.03,12.75c-2.16,3.01-5.2,5.26-8.71,6.46c-2.18,0.76-4.44,1.24-6.76,1.88v5.7h-10.8v-5.86
		c-2.18-0.6-4.27-1.06-6.27-1.75c-3.94-1.24-7.34-3.78-9.63-7.22c-1.9-2.99-2.87-6.48-2.78-10.02h11.49
		c0.18,4.11,3.07,7.61,7.08,8.55v-15.67c-2.18-0.64-4.39-1.24-6.57-1.91c-2.64-0.72-5.06-2.08-7.05-3.95
		c-1.98-1.97-3.28-4.51-3.72-7.26c-0.7-3.36-0.45-6.84,0.71-10.07c1.72-4.69,5.43-8.38,10.13-10.07c1.91-0.61,3.86-1.11,5.84-1.49
		l0.71-0.16v-7.74H674.35z M674.35,214.67c1.78-0.23,3.47-0.96,4.85-2.11c2.38-2.09,2.81-5.63,0.99-8.23
		c-1.62-1.55-3.64-2.63-5.84-3.1L674.35,214.67z M663.53,173.97c-1.44,0.6-2.83,1.31-4.16,2.11c-2.58,1.85-3.17,5.44-1.32,8.02
		c0.2,0.27,0.41,0.53,0.65,0.76c1.43,1.1,3.07,1.88,4.83,2.3V173.97z"/>
	<path class="st1" d="M601.65,217.24c1.95,9.14-3.88,18.12-13.01,20.07c-1.95,0.42-3.97,0.48-5.95,0.2
		c-3.1-0.48-6.02-1.72-8.53-3.61c-4.65-3.39-7.59-8.65-8.04-14.39c-0.53-9.19,7.28-17.35,16.38-18.38
		C591.03,200.01,600.06,209.45,601.65,217.24z"/>
	<path class="st2" d="M585.03,238.8c-0.84,0-1.68-0.07-2.5-0.18c-3.28-0.52-6.38-1.84-9.03-3.84c-4.94-3.58-8.05-9.15-8.53-15.24
		c-0.14-10.06,7.39-18.58,17.4-19.67c8.99-1.15,18.52,8.43,20.38,17.07l0,0c2.12,9.72-4.04,19.32-13.76,21.44
		C587.69,238.67,586.36,238.81,585.03,238.8L585.03,238.8z M583.84,202.03c-0.39-0.02-0.78-0.02-1.17,0
		c-8.82,1.08-15.88,8.99-15.4,17.26c0.43,5.4,3.2,10.35,7.58,13.54c2.36,1.77,5.11,2.94,8.02,3.4c8.62,1.23,16.61-4.75,17.84-13.37
		c0.26-1.84,0.2-3.72-0.19-5.54l0,0C598.93,210.19,591.14,202.03,583.84,202.03z"/>
	<path class="st1" d="M608.86,258.63c2.24,3.19,2.9,7.23,1.79,10.96c-0.9,2.16-2.28,4.07-4.04,5.61c-4.6,4.39-10.98,7.49-17.28,6.55
		c-3.87-0.8-7.5-2.46-10.64-4.85c-5.58-3.84-10.94-8.73-12.8-15.24c-2.69-9.42,4.16-23.19,15.21-21.81
		C590.16,241.1,604.04,251.14,608.86,258.63z"/>
	<path class="st2" d="M591.63,283.06c-0.83,0.01-1.66-0.05-2.48-0.18c-4.03-0.82-7.83-2.54-11.1-5.03
		c-7.42-5.1-11.63-10.13-13.26-15.86c-1.52-6.42,0.07-13.18,4.3-18.25c2.91-3.67,7.51-5.57,12.16-5.03
		c9.44,1.19,23.62,11.49,28.59,19.3l0,0c2.44,3.48,3.15,7.89,1.91,11.95c-0.94,2.34-2.42,4.42-4.32,6.07
		C603.23,280.29,597.59,282.8,591.63,283.06z M579.54,240.91c-3.4,0.08-6.59,1.66-8.71,4.32c-3.75,4.45-5.18,10.42-3.84,16.09
		c1.47,5.17,5.4,9.81,12.34,14.59c3,2.27,6.47,3.84,10.16,4.6c6.11,0.52,12.13-1.77,16.34-6.23c1.63-1.41,2.91-3.18,3.75-5.17
		c1-3.39,0.39-7.05-1.65-9.93c-4.6-7.15-18.25-17.19-26.98-18.27C580.47,240.88,580.01,240.88,579.54,240.91L579.54,240.91z"/>
	<path class="st1" d="M603.25,288.92c2.16,1.47,3.95,3.4,5.26,5.65c2.65,5.34,1.97,11.73-1.72,16.41
		c-3.74,4.55-9.16,7.39-15.03,7.88c-6.92,0.85-13.88-1.3-19.12-5.91c-5.2-4.73-7.51-11.85-6.09-18.73
		C570.78,276.51,592.22,280.87,603.25,288.92z"/>
	<path class="st2" d="M588.96,320.17c-6.29,0.07-12.38-2.2-17.1-6.37c-5.52-4.99-7.97-12.55-6.43-19.83
		c1.03-5.48,4.84-10.03,10.07-12c8.78-3.26,20.96,0.55,28.43,6l0,0c2.29,1.58,4.21,3.64,5.61,6.04c2.9,5.73,2.19,12.63-1.82,17.65
		c-3.93,4.81-9.65,7.81-15.83,8.34C590.91,320.12,589.94,320.17,588.96,320.17z M582.8,283.06c-2.22-0.03-4.43,0.33-6.53,1.08
		c-4.5,1.68-7.78,5.63-8.59,10.36c-1.31,6.47,0.86,13.15,5.72,17.6c5,4.37,11.63,6.42,18.22,5.63c5.57-0.46,10.72-3.15,14.27-7.47
		c3.4-4.32,4.03-10.2,1.63-15.14c-1.25-2.09-2.94-3.9-4.94-5.29l0,0C596.81,285.66,589.92,283.31,582.8,283.06L582.8,283.06z"/>
	<path class="st1" d="M804.4,334.65c0,0-9.19-79.76-19.14-93.96c-9.95-14.2-42.72-74.75-50.26-74.59
		c-7.54,0.16-13.28,23.46-5.06,43.13c4.81,11.6,11.38,22.39,19.49,31.99c0,0-17.86,18.27,1.1,72.43"/>
	<path class="st2" d="M804.4,335.8c-0.58-0.01-1.07-0.44-1.15-1.01c0-0.8-9.19-79.65-18.94-93.46c-3.1-4.39-8.3-13.1-14.32-23.16
		c-11.38-19.05-30.4-50.9-34.95-50.9l0,0c-1.61,0-2.94,1.59-3.79,2.87c-4.18,6.43-6.6,23.44-0.23,38.63
		c4.74,11.48,11.2,22.16,19.17,31.69c0.41,0.44,0.41,1.12,0,1.56c-0.16,0.18-17.05,18.57,1.38,71.24c0.21,0.59-0.1,1.23-0.68,1.44
		c-0.01,0-0.02,0.01-0.03,0.01c-0.57,0.22-1.21-0.06-1.43-0.63c-0.01-0.02-0.01-0.04-0.02-0.06c-17.05-48.72-4.76-68.69-1.54-72.8
		c-7.81-9.55-14.18-20.19-18.94-31.57c-6.3-15.07-4.6-32.91,0.44-40.77c1.11-2.18,3.24-3.66,5.68-3.93l0,0
		c5.47,0,18.77,21.56,36.97,52c6,10.04,11.17,18.71,14.22,22.98c10.02,14.29,18.96,91.23,19.35,94.49c0.07,0.64-0.39,1.21-1.03,1.29
		L804.4,335.8z"/>
	<polygon class="st1" points="858.44,476.52 830.39,408.32 694.67,436.79 702.3,478.27 	"/>
	<path class="st2" d="M702.3,479.42c-0.55,0-1.03-0.4-1.13-0.94L693.54,437c-0.11-0.61,0.29-1.21,0.9-1.33l135.72-28.47
		c0.54-0.11,1.08,0.18,1.29,0.69l28.06,68.2c0.18,0.34,0.18,0.74,0,1.08c-0.21,0.32-0.56,0.51-0.94,0.51l-156.12,1.75H702.3z
		 M696,437.69l7.26,39.41l153.46-1.7l-27.02-65.75L696,437.69z"/>
	<path class="st4" d="M357.21,113.93c0,0,63.61-65.4,175.63-35.18l10.07-18.15l36.77,67.61l-72.91,5.42l9.38-21.35
		c0,0-66.64-30.59-154.08,12.23L357.21,113.93z"/>
	<path class="st4" d="M584.8,390.35c0,0-63.61,65.4-175.63,35.18l-10.07,18.15l-36.77-67.61l72.91-5.42L425.87,392
		c0,0,66.64,30.59,154.08-12.23L584.8,390.35z"/>
</g>
</svg>
