<?xml version="1.0" encoding="utf-8"?>
<!-- Generator: Adobe Illustrator 24.3.0, SVG Export Plug-In . SVG Version: 6.00 Build 0)  -->
<svg version="1.1" id="Camada_1" xmlns="http://www.w3.org/2000/svg" xmlns:xlink="http://www.w3.org/1999/xlink" x="0px" y="0px"
	 viewBox="0 0 1350 700" style="enable-background:new 0 0 1350 700;" xml:space="preserve">
<style type="text/css">
	.st0{font-family:'MyriadPro-Regular';}
	.st1{font-size:83.6225px;}
	.st2{fill:none;stroke:#000000;stroke-width:5;stroke-linecap:round;stroke-miterlimit:10;}
</style>
<text transform="matrix(1 0 0 1 380.3954 305.8141)" class="st0 st1">Reembol$a.ai</text>
<path class="st2" d="M458.81,224c64.28-72.79,189.86-95.71,280.5-51.19c39.66,19.48,66.05,48.64,77.82,81.37"/>
<path class="st2" d="M431.24,213.82l47.95,23.55c1.44,0.71,1.09,2.43-0.59,2.93l-41.41,12.18c-3.88,1.14-7.85-0.81-7.98-3.92
	l-1.35-33.18C427.81,214.03,429.8,213.11,431.24,213.82z"/>
<path class="st2" d="M786.19,353.64c-64.28,72.79-189.86,95.71-280.5,51.19c-39.66-19.48-66.05-48.64-77.82-81.37"/>
<path class="st2" d="M813.76,363.82l-47.95-23.55c-1.44-0.71-1.09-2.43,0.59-2.93l41.41-12.18c3.88-1.14,7.85,0.81,7.98,3.92
	l1.35,33.18C817.19,363.6,815.2,364.52,813.76,363.82z"/>
</svg>
